<svg xmlns="http://www.w3.org/2000/svg" viewBox="0 0 296.39 426.77"><defs><style>.cls-1{fill:#8c564a;}.cls-2{fill:#263238;}.cls-3{fill:#0378a6;}.cls-4{fill:#59362e;}.cls-5{fill:#c1c1c1;}</style></defs><title>Asset 11</title><g id="Layer_2" data-name="Layer 2"><g id="Layer_1-2" data-name="Layer 1"><path class="cls-1" d="M229.76,284.37c-9.82,18.72-18.7,37.82-23.53,58.55a104.08,104.08,0,0,0-2.77,20.95,61,61,0,0,1-18.63,17.48c-16.89,10.51-35.44,16.13-55.18,17.95-3,.28-6.12,1.52-9.16,0-10.37-7.4-18.63-16.87-26.09-27-19.34-26.4-30.17-56.4-36.7-88.17a79.69,79.69,0,0,1-1.59-9.92c-.26-3.27-2.23-4.2-5-4.76-10.43-2.11-20.39-5.6-29.38-11.37-10.35-6.63-18.43-15.07-21-27.72C-1.78,218,2.32,207.67,9.92,198.46,21.87,184,38,175.66,55,169c18.69-7.34,38.2-11.37,58.08-13.77l.2.51c-.67,2.52-2.41,4.35-4.2,6C96.09,174,81.39,183.46,64,188.2c-.3.06.2,0,1.12-.26,20.55-5.2,41.53-7.89,62.42-11.11a99.83,99.83,0,0,1,14.84-1.54c3.75,0,7.49-.1,11.24.08a11.51,11.51,0,0,1,3,.73c7.85,3,12.22,9.17,14.58,16.89a43.12,43.12,0,0,1,1.84,14.78c-.06,1.36-.38,2.75.75,3.88.15,1.49-.9,2.25-1.87,3-16.92,13.17-33,27.37-51.14,39a106.78,106.78,0,0,1-57.48,17.43l-2.62,0c-2.11,0-2.74,1-2.54,3.08,1,10.55,1,10.78,11.5,9.12a120.89,120.89,0,0,0,59.11-27c5.76-4.77,11.76-9.26,17-14.66,2.05-2.12,3.56-2,5.91,0,15.66,13.77,31.41,27.44,51.3,35a119.31,119.31,0,0,0,24.44,6.78A3.28,3.28,0,0,1,229.76,284.37Z"/><path class="cls-1" d="M183.36,156.19a216.26,216.26,0,0,1,42.26,8.27c17.89,5.25,35,12.26,49.76,24,9.71,7.72,17.79,16.69,20.33,29.48,2.27,11.45-1.29,21.18-8.73,29.65-10.73,12.23-25,18-40.37,21.72-3,.72-6.09,1.14-9.13,1.7-14.24.26-27.48-3.72-40.51-9.07-12.52-5.13-23.1-13.24-33.89-21.07a45.26,45.26,0,0,1-4.9-3.43c-1.47-1.4-2-2.78-.23-4.45,9.84-9.54,19.21-19.61,30-28.18a65.14,65.14,0,0,1,20.53-11.3,25,25,0,0,0,6.05-2.07c2.43-.68,2.91-2.21,2.3-4.56-1.21-4.74-3.12-8.74-8.49-9.81a1.71,1.71,0,0,1-1.14-.9c.22-1.5-1.16-.92-1.76-1.27a90.63,90.63,0,0,1-20.74-15.84C183.92,158.28,182.93,157.53,183.36,156.19Z"/><path class="cls-2" d="M120.62,123.79c-5.14-2.84-10.06-6-13.73-10.7-7.54-9.72-7.24-21.2,1-30.34,8-8.85,18.43-13,29.9-14.63,15.89-2.26,31.12-.26,44.59,9.18,8.57,6,14,14,12.14,25.08-1.42,8.29-6.88,13.9-13.61,18.4-1.65,1.1-3.42,2-5.13,3-1.92,0-2.1-1.71-2.68-2.93-.93-2-1.21-4.19-2.37-6.07-9.65-8-16.11-18.47-22.53-29.81-6,11.59-12.4,22.22-22.53,29.92-1.2,1.79-1.4,4-2.32,5.87C122.74,122,122.59,123.76,120.62,123.79Z"/><path class="cls-3" d="M120.49,399.27c13.69-1,27.14-3,40.21-7.56a104.66,104.66,0,0,0,31-16.43c4.26-3.34,7.83-7.57,11.72-11.41.31,6.34.95,12.59,3.69,18.45,2.88,6.16,7.08,11,13.35,13.88,1.41.66,3.06,1.11,3.95,2.61-1.74,3.27-4.73,5.36-7.46,7.61-8.62,7.1-18.25,12.57-28.33,17.28a14.36,14.36,0,0,1-9.09.93c-16.87-2.93-33-8.07-47.63-17.15A71.77,71.77,0,0,1,120.49,399.27Z"/><path class="cls-4" d="M217,190.87c-9.59,3.24-26,12.22-33.54,18.89-8.59,7.61-16.39,16-24.83,23.8-1.83,1.69-1,2.52.3,3.39,12.94,8.55,24.77,18.8,39.47,24.62,11.89,4.7,23.94,8.16,36.77,8.55.88,0,1.76,0,2.32.89q-3.85,6.69-7.72,13.36c-11.17-.72-21.54-4.4-31.68-8.8-14.48-6.28-26.94-15.61-38.65-26.06-3.22-2.88-6.92-5.18-9.78-8.51-1.53-1.78-2.32.44-3.09,1.17-9.43,8.85-19.15,17.39-30.12,24.25-14.86,9.29-30.79,16-48.4,18a24.3,24.3,0,0,0-5.47,1c-.88.32-4.16,1.69-4.34,1.23s-3.48-15.66-4.51-16.4,36.08-2.76,49.86-8.39c12.16-5,22.87-12.61,33.27-20.53,11.77-8.95,23.21-18.34,34.79-27.54.88-.69,1.91-1.22,2.06-2.5,0-1.32.87-2,1.78-2.66a129.78,129.78,0,0,1,28.59-15.18,6.72,6.72,0,0,1,3.29-.51C208.09,193.12,217.16,189.76,217,190.87Z"/><path class="cls-1" d="M179.57,424.63c8,.46,14-4.39,20.45-7.77,9-4.72,16.83-11.28,24.43-18.05,10.43,5,21.16,8.44,33,7.93a53.89,53.89,0,0,0,24.78-7.18c.9-.51,1.62-1.57,3.42-1.27A52.45,52.45,0,0,1,273.93,408c-13.87,9-29.17,14.18-45.47,16.66-10,1.51-20,2.53-30.09,2C192.09,426.33,185.73,426.33,179.57,424.63Z"/><path class="cls-4" d="M164.7,172.71c7.81-3.65,14.14-8.91,18.06-16.78a.87.87,0,0,1,.6.26c6.22,7.57,14.22,12.93,22.47,18,.58.36,9.41,5.06,9,6.42-1,1-9.81-4-11-4.23-11.64-1.87-23.37-1.9-35.12-1.79C167.31,174.07,165.22,175.08,164.7,172.71Z"/><path class="cls-3" d="M168.86,173.26a183.75,183.75,0,0,1,38.92,2.15c6.27,1.36,9.35,5.41,10.61,11.59.64,3.16-.26,4.57-3.21,5a42.35,42.35,0,0,1-7.29,1.6c-12.43,3.49-34.59,18.76-34.61,18.73a6.26,6.26,0,0,1-1-2.87c.69-7.65-.08-15.17-3.65-22.11a22.76,22.76,0,0,0-11.89-10.78,1.43,1.43,0,0,1,1-1.1,11.41,11.41,0,0,0,4.5-1.46C164.25,172.42,166.71,174.2,168.86,173.26Z"/><path class="cls-4" d="M113.05,155.24c2.06,1.43,2.08,4.06,3.49,5.93a34.54,34.54,0,0,0,17.08,12.09c2.82.94,5.78,1.46,8.39,3-13.88,1-27.55,3.53-41.26,5.77-12.23,2-36.93,6.24-36.93,6.24s31.61-14.79,44.36-27.34C110,159.16,111.43,157.13,113.05,155.24Z"/><path class="cls-3" d="M157.21,175.75a5.3,5.3,0,0,1-2.87.53C155.18,175.47,156.2,175.63,157.21,175.75Z"/><path class="cls-2" d="M171.65,114.45c1.48,3.07,2,6.57,4.12,9.35,1.75,3.56,3.6,7.07,5.22,10.69,3.1,6.92,4.26,14,1.77,21.44,0,3.71-11.69,20.48-25.27,20.48a123.81,123.81,0,0,1-15.19-.11,42.66,42.66,0,0,1-20-8.15c-4.3-3.32-7.64-7.38-8.93-12.84l-.24-.11c-2.28-9.3.56-17.63,4.79-25.71,1-1.87,1.83-3.8,2.74-5.7,2.12-2.75,2.67-6.2,4.09-9.27,2.4,2.85,2.21,6.2,1.7,9.52-1,6.17-2,12.29-1.94,18.6a13.3,13.3,0,0,0,4.48,9.89c8.72,8.4,31.47,6.95,37.8-1,2.52-3.16,4.2-6.39,4.35-10.46.2-5.65-.63-11.2-1.19-16.79C169.56,120.89,168.76,117.31,171.65,114.45Z"/><path class="cls-1" d="M171.65,114.45c-1.84,5.44-.59,10.92,0,16.32a54.16,54.16,0,0,1,.38,12.32c-.79,7-5.13,11.69-11.51,13.91-8.37,2.91-17,3.59-25.6.43-7.83-2.88-11.58-8.29-11.67-16.61a53.51,53.51,0,0,1,1.18-11.52c1-4.94,1.5-9.83.23-14.78,10.72-8.15,17.43-19.32,23.4-31.68,2.47,4.33,4.6,8.31,7,12.15A83.94,83.94,0,0,0,171.65,114.45Z"/><path class="cls-4" d="M62.57,285.37c-.71.26-7.82-14.43-8.85-15.17"/><path class="cls-2" d="M135.52,0s11.56,5.33,16.22,15.66-2.88,18.47-2.88,18.47,4.72-1,11.57-9c7.45,6.57,23.54,20.39,24.63,21.55s12.39,10.61,18.75,21.15A26.91,26.91,0,0,1,207.71,87c-.27,1.71,1.11,26.43-31.94,36.84.55-1.1,5-20.46-12.77-35.85l-13.13-9.78s-18.37,7.42-25.12,19.94-7.55,21.85-4.13,25.68c0,0-29.13-14.55-29.95-39-.27-2.46-1.46-18.18,18.8-35.49,10.88-9.3,17.34-12,21.1-16.33.23-.26,6.09-6.18,6.18-6.37a20.27,20.27,0,0,0,1.71-7.7C138.78,14.38,135.57,7.7,135.52,0Z"/><ellipse class="cls-2" cx="138.62" cy="126.64" rx="4.12" ry="4.83"/><ellipse class="cls-2" cx="157.78" cy="126.64" rx="4.12" ry="4.83"/><path class="cls-2" d="M134.5,146.31a18.73,18.73,0,0,0,32-3.17"/><path class="cls-5" d="M138.85,147.73c2.45,2.82,6.84,4.38,11.49,4.07,5-.34,9.57-2.82,11.6-6.35"/><path class="cls-2" d="M138.26,117.43l-7.77,3a1.29,1.29,0,0,0-.73,1.67h0a1.29,1.29,0,0,0,1.66.73l4-1.55,3.82-1.49a1.29,1.29,0,0,0,.73-1.67h0A1.28,1.28,0,0,0,138.26,117.43Z"/><path class="cls-2" d="M155.42,115.35l7.77,3.05a1.28,1.28,0,0,1,.73,1.66h0a1.28,1.28,0,0,1-1.66.73l-3.95-1.54-3.82-1.5a1.29,1.29,0,0,1-.73-1.67h0A1.29,1.29,0,0,1,155.42,115.35Z"/></g></g></svg>